<?xml version="1.0" encoding="iso-8859-1"?>
<!-- Uploaded to: SVG Repo, www.svgrepo.com, Generator: SVG Repo Mixer Tools -->
<svg version="1.1" id="Layer_1" xmlns="http://www.w3.org/2000/svg" xmlns:xlink="http://www.w3.org/1999/xlink" 
	 viewBox="0 0 460 460" xml:space="preserve">
<g id="XMLID_854_">
	<polygon id="XMLID_855_" style="fill:#A3B1C4;" points="0,430 0,460 230,460 240,445 230,430 115,420 	"/>
	<polygon id="XMLID_856_" style="fill:#BEC8D6;" points="0,400 115,390 230,400 240,415 230,430 0,430 	"/>
	<polygon id="XMLID_857_" style="fill:#6B81A1;" points="460,430 345,420 230,430 230,460 460,460 	"/>
	<polygon id="XMLID_858_" style="fill:#8799B3;" points="460,310 460,430 230,430 230,400 	"/>
	<polygon id="XMLID_859_" style="fill:#DAE0E7;" points="0,110 115,100 230,110 240,255 230,400 0,400 	"/>
	<polygon id="XMLID_860_" style="fill:#8799B3;" points="0,40 0,110 230,110 240,75 230,40 	"/>
	<polygon id="XMLID_861_" style="fill:#BEC8D6;" points="460,110 460,310 370,400 230,400 230,110 345,100 	"/>
	<rect id="XMLID_862_" x="230" y="40" style="fill:#6B81A1;" width="230" height="70"/>
	<path id="XMLID_863_" style="fill:#354A67;" d="M66.5,65V15c0-8.284-6.716-15-15-15s-15,6.716-15,15v50c0,8.284,6.716,15,15,15
		S66.5,73.284,66.5,65z"/>
	<path id="XMLID_864_" style="fill:#354A67;" d="M186.5,65V15c0-8.284-6.716-15-15-15s-15,6.716-15,15v50c0,8.284,6.716,15,15,15
		S186.5,73.284,186.5,65z"/>
	<path id="XMLID_865_" style="fill:#233145;" d="M306.5,65V15c0-8.284-6.716-15-15-15s-15,6.716-15,15v50c0,8.284,6.716,15,15,15
		S306.5,73.284,306.5,65z"/>
	<path id="XMLID_866_" style="fill:#233145;" d="M426.5,65V15c0-8.284-6.716-15-15-15s-15,6.716-15,15v50c0,8.284,6.716,15,15,15
		S426.5,73.284,426.5,65z"/>
	<rect id="XMLID_867_" x="66.5" y="150" style="fill:#FFFFFF;" width="90" height="90"/>
	<rect id="XMLID_868_" x="66.5" y="270" style="fill:#FFFFFF;" width="90" height="90"/>
	<polygon id="XMLID_869_" style="fill:#FFFFFF;" points="186.5,150 186.5,240 230,240 240,195 230,150 	"/>
	<rect id="XMLID_870_" x="230" y="150" style="fill:#DAE0E7;" width="46.5" height="90"/>
	<polygon id="XMLID_871_" style="fill:#FFFFFF;" points="186.5,270 186.5,360 230,360 240,315 230,270 	"/>
	<rect id="XMLID_872_" x="230" y="270" style="fill:#DAE0E7;" width="46.5" height="90"/>
	<rect id="XMLID_873_" x="306.5" y="150" style="fill:#DAE0E7;" width="90" height="90"/>
	<rect id="XMLID_874_" x="306.5" y="270" style="fill:#DAE0E7;" width="90" height="90"/>
	<polygon id="XMLID_875_" style="fill:#A3B1C4;" points="370,310 460,310 370,400 	"/>
</g>
</svg>